<?xml version="1.0" standalone="no"?><svg xmlns="http://www.w3.org/2000/svg" viewBox="0 0 1440 320"><path fill="#232323" fill-opacity="1" d="M0,32L17.1,53.3C34.3,75,69,117,103,117.3C137.1,117,171,75,206,74.7C240,75,274,117,309,128C342.9,139,377,117,411,144C445.7,171,480,245,514,245.3C548.6,245,583,171,617,144C651.4,117,686,139,720,144C754.3,149,789,139,823,144C857.1,149,891,171,926,165.3C960,160,994,128,1029,101.3C1062.9,75,1097,53,1131,90.7C1165.7,128,1200,224,1234,256C1268.6,288,1303,256,1337,229.3C1371.4,203,1406,181,1423,170.7L1440,160L1440,0L1422.9,0C1405.7,0,1371,0,1337,0C1302.9,0,1269,0,1234,0C1200,0,1166,0,1131,0C1097.1,0,1063,0,1029,0C994.3,0,960,0,926,0C891.4,0,857,0,823,0C788.6,0,754,0,720,0C685.7,0,651,0,617,0C582.9,0,549,0,514,0C480,0,446,0,411,0C377.1,0,343,0,309,0C274.3,0,240,0,206,0C171.4,0,137,0,103,0C68.6,0,34,0,17,0L0,0Z"></path></svg>